<?xml version="1.0" encoding="iso-8859-1"?>
<!-- Generator: Adobe Illustrator 19.0.0, SVG Export Plug-In . SVG Version: 6.00 Build 0)  -->
<svg version="1.1" id="Layer_1" xmlns="http://www.w3.org/2000/svg" xmlns:xlink="http://www.w3.org/1999/xlink" x="0px" y="0px"
	 viewBox="0 0 512.002 512.002" style="enable-background:new 0 0 512.002 512.002;" xml:space="preserve">
<g>
	<g>
		<circle cx="352.281" cy="104.938" r="104.938"/>
	</g>
</g>
<g>
	<g>
		<path fill="#16161D" d="M169.719,385.123c-13.931,0-27.031,5.426-36.882,15.278l-12.87,12.869c-7.192,7.192-18.895,7.192-26.091,0
			c-7.192-7.193-7.192-18.896,0-26.09l14.223-14.225c12.363,4.412,26.559,2.509,37.512-6.036l165.843-129.415
			c-21.373-6.553-40.956-18.27-57.21-34.527c-16.258-16.257-27.976-35.841-34.53-57.216L90.296,311.606
			c-8.546,10.951-10.448,25.149-6.036,37.512l-14.224,14.225c-20.338,20.338-20.338,53.429,0,73.768
			c20.343,20.338,53.432,20.337,73.768,0l12.87-12.869c7.193-7.192,18.895-7.193,26.09,0c7.192,7.193,7.192,18.896,0,26.09
			l-37.834,37.833l23.839,23.839l37.834-37.834c20.338-20.337,20.338-53.429,0-73.767
			C196.751,390.549,183.652,385.123,169.719,385.123z"/>
	</g>
</g>
<g>
</g>
<g>
</g>
<g>
</g>
<g>
</g>
<g>
</g>
<g>
</g>
<g>
</g>
<g>
</g>
<g>
</g>
<g>
</g>
<g>
</g>
<g>
</g>
<g>
</g>
<g>
</g>
<g>
</g>
</svg>
