<svg width="198" height="144" viewBox="0 0 198 144" fill="none" xmlns="http://www.w3.org/2000/svg">
<path d="M43.4254 141.768C41.6194 140.947 40.2239 139.797 39.2388 138.318C38.2537 136.84 37.7612 135.279 37.7612 133.472C37.7612 130.679 38.9104 128.38 41.209 126.655C43.5075 125.012 46.6269 123.862 50.7313 123.205L58.3657 122.055V121.234C58.3657 119.673 58.0373 118.523 57.3806 117.784C56.7239 117.045 55.6567 116.716 54.097 116.716C53.194 116.716 52.3731 116.881 51.7985 117.209C51.2239 117.538 50.5672 117.948 49.9104 118.523C49.3358 119.016 48.9254 119.345 48.597 119.509C48.4328 119.755 48.1866 119.92 47.8582 119.92H41.209C40.7985 119.92 40.4701 119.755 40.2239 119.509C39.9776 119.262 39.8134 118.934 39.8955 118.523C39.9776 117.455 40.4701 116.223 41.5373 114.827C42.6045 113.431 44.1642 112.281 46.2985 111.295C48.4328 110.31 51.0597 109.817 54.2612 109.817C59.2687 109.817 62.9627 110.967 65.4254 113.184C67.806 115.402 69.0373 118.359 69.0373 122.137V140.782C69.0373 141.193 68.8731 141.522 68.6269 141.85C68.3806 142.179 67.9701 142.343 67.5597 142.343H60.3358C59.9254 142.343 59.597 142.179 59.2687 141.85C58.9403 141.522 58.7761 141.193 58.7761 140.782V138.647C57.8731 139.879 56.6418 140.947 55 141.768C53.3582 142.589 51.4701 143 49.2537 143C47.1194 143 45.1493 142.589 43.4254 141.768ZM56.7239 134.211C57.8731 132.979 58.4478 131.172 58.4478 128.79V127.969L53.2761 128.872C49.5821 129.53 47.7761 130.844 47.7761 132.733C47.7761 133.719 48.1866 134.54 49.0896 135.115C49.9104 135.69 50.9776 136.018 52.209 136.018C54.0149 136.018 55.5746 135.443 56.7239 134.211Z" fill="#16161d"/>
<path d="M76.8358 139.304C73.9627 136.84 72.4851 133.39 72.2388 128.955L72.1567 126.491L72.2388 124.026C72.403 119.591 73.9627 116.141 76.8358 113.677C79.7089 111.213 83.4851 109.981 88.0821 109.981C91.5298 109.981 94.4851 110.638 96.8657 111.87C99.2463 113.102 101.052 114.581 102.201 116.306C103.351 118.03 104.007 119.591 104.09 121.069C104.172 121.48 104.007 121.809 103.679 122.137C103.351 122.466 103.022 122.63 102.53 122.63H94.7313C94.3209 122.63 93.9104 122.548 93.6642 122.302C93.4179 122.137 93.1716 121.809 93.0075 121.398C92.5149 120.166 91.8582 119.262 91.1194 118.688C90.3806 118.195 89.3955 117.866 88.2463 117.866C84.8806 117.866 83.1567 120.002 83.0746 124.355L82.9925 126.655L83.0746 128.708C83.1567 130.926 83.6492 132.569 84.5522 133.554C85.4552 134.622 86.6866 135.115 88.3284 135.115C89.5597 135.115 90.6269 134.868 91.3657 134.294C92.1045 133.801 92.6791 132.897 93.1716 131.583C93.3358 131.172 93.5821 130.844 93.8284 130.679C94.0746 130.515 94.403 130.351 94.8955 130.351H102.694C103.104 130.351 103.433 130.515 103.761 130.762C104.09 131.008 104.254 131.337 104.254 131.747C104.254 133.061 103.679 134.622 102.612 136.347C101.463 138.072 99.7388 139.632 97.2761 140.947C94.8955 142.261 91.8582 142.918 88.2463 142.918C83.403 143 79.7089 141.768 76.8358 139.304Z" fill="#16161d"/>
<path d="M107.537 141.932C107.209 141.604 107.045 141.275 107.045 140.864V100.453C107.045 100.043 107.209 99.6319 107.537 99.3854C107.866 99.139 108.194 98.9748 108.604 98.9748H115.664C116.075 98.9748 116.485 99.139 116.731 99.3854C116.978 99.6319 117.142 100.043 117.142 100.453V120.987L125.679 111.624C125.761 111.542 125.925 111.377 126.172 111.213C126.418 111.049 126.664 110.885 126.91 110.72C127.157 110.638 127.403 110.556 127.731 110.556H135.94C136.269 110.556 136.597 110.72 136.925 110.967C137.172 111.213 137.336 111.542 137.336 111.952C137.336 112.363 137.172 112.774 136.843 113.02L125.843 124.93L138.403 140.207C138.731 140.536 138.896 140.864 138.896 141.111C138.896 141.522 138.731 141.85 138.485 142.097C138.239 142.343 137.91 142.507 137.5 142.507H129.127C128.634 142.507 128.224 142.425 127.896 142.261C127.649 142.097 127.321 141.85 126.91 141.439L117.224 129.776V140.947C117.224 141.357 117.06 141.686 116.813 142.014C116.567 142.343 116.157 142.507 115.746 142.507H108.687C108.194 142.425 107.866 142.261 107.537 141.932Z" fill="#16161d"/>
<path d="M143.41 139.057C140.619 136.429 139.142 132.569 138.978 127.476V125.341C139.142 120.495 140.619 116.798 143.493 114.006C146.366 111.295 150.142 109.899 154.903 109.899C158.351 109.899 161.306 110.638 163.687 112.035C166.067 113.431 167.873 115.402 169.104 117.784C170.336 120.166 170.91 123.041 170.91 126.244V127.723C170.91 128.133 170.746 128.462 170.5 128.79C170.254 129.119 169.843 129.283 169.433 129.283H149.813V129.694C149.896 131.583 150.388 133.144 151.209 134.376C152.03 135.526 153.343 136.183 154.903 136.183C155.888 136.183 156.791 135.936 157.448 135.526C158.104 135.115 158.679 134.54 159.254 133.965C159.582 133.554 159.91 133.226 160.157 133.144C160.403 133.062 160.731 132.979 161.224 132.979H168.776C169.104 132.979 169.433 133.062 169.761 133.308C170.007 133.554 170.172 133.801 170.172 134.211C170.172 135.279 169.597 136.511 168.366 137.908C167.134 139.304 165.41 140.536 163.112 141.522C160.813 142.507 158.104 143.082 155.067 143.082C150.06 143 146.201 141.686 143.41 139.057ZM160.075 123.205V123.123C160.075 121.152 159.582 119.509 158.679 118.359C157.776 117.209 156.463 116.634 154.821 116.634C153.261 116.634 151.948 117.209 151.045 118.359C150.142 119.509 149.649 121.07 149.649 123.123V123.205H160.075Z" fill="#16161d"/>
<path d="M178.134 130.351V118.605H173.373C172.963 118.605 172.552 118.441 172.224 118.195C171.896 117.948 171.731 117.538 171.731 117.127V112.199C171.731 111.788 171.896 111.377 172.224 111.131C172.552 110.885 172.881 110.72 173.373 110.72H178.134V100.618C178.134 100.207 178.299 99.7962 178.627 99.5498C178.955 99.3033 179.284 99.1391 179.694 99.1391H186.754C187.164 99.1391 187.575 99.3033 187.821 99.5498C188.067 99.7962 188.231 100.207 188.231 100.618V110.72H195.866C196.276 110.72 196.687 110.885 197.015 111.131C197.343 111.377 197.507 111.788 197.507 112.199V117.127C197.507 117.538 197.343 117.948 197.015 118.195C196.687 118.441 196.358 118.605 195.866 118.605H188.231V129.53C188.231 132.569 189.381 134.047 191.761 134.047H196.44C196.851 134.047 197.261 134.211 197.507 134.458C197.754 134.704 197.918 135.115 197.918 135.526V140.865C197.918 141.275 197.754 141.604 197.507 141.932C197.261 142.261 196.851 142.425 196.44 142.425H190.776C182.321 142.425 178.134 138.4 178.134 130.351Z" fill="#16161d"/>
<path d="M0.492537 141.932C0.164179 141.604 0 141.275 0 140.864V101.028C0 100.617 0.164179 100.207 0.492537 99.9603C0.820895 99.7139 1.14925 99.5497 1.5597 99.5497H17.5672C22.903 99.5497 27.0896 100.782 30.0448 103.164C33.0821 105.628 34.5597 108.995 34.5597 113.513C34.5597 116.388 33.903 118.77 32.5075 120.823C31.1119 122.876 29.306 124.355 26.9254 125.423L35.2985 140.454C35.3806 140.7 35.4627 140.947 35.4627 141.111C35.4627 141.439 35.2985 141.768 35.0522 142.014C34.806 142.261 34.4776 142.425 34.1493 142.425H26.1045C24.9552 142.425 24.0522 141.85 23.5597 140.782L16.5821 127.312H10.3433V140.947C10.3433 141.357 10.1791 141.768 9.85075 142.014C9.52239 142.261 9.19403 142.425 8.70149 142.425H1.5597C1.14925 142.425 0.738806 142.261 0.492537 141.932ZM17.403 118.605C19.291 118.605 20.6866 118.113 21.6716 117.209C22.6567 116.306 23.1493 114.991 23.1493 113.349C23.1493 111.706 22.6567 110.392 21.6716 109.488C20.6866 108.503 19.291 108.01 17.3209 108.01H10.3433V118.523H17.403V118.605Z" fill="#16161d"/>
<path d="M103.433 60.1241C101.381 62.4239 100.396 64.888 100.396 67.8449L100.642 83.1224C100.642 83.8616 101.216 84.4365 101.955 84.4365H112.709C113.037 84.4365 113.366 84.2723 113.612 84.0259C113.858 83.7795 114.022 83.4509 114.022 83.1224L113.776 68.2556C113.776 64.9702 114.925 62.0132 117.224 59.467C118.291 58.2349 119.604 57.3314 121 56.6743L111.56 56.7565C108.112 56.8386 105.403 57.9885 103.433 60.1241Z" fill="#16161d"/>
<path d="M174.522 0H163.769C163.03 0 162.455 0.574957 162.455 1.31419V14.0454C162.537 27.1051 158.925 37.4543 151.784 44.6824C146.858 49.6927 140.455 52.9782 132.739 54.5388H136.187C148.828 54.4566 158.679 50.9248 165.575 43.9431C172.47 37.0437 175.836 27.1051 175.754 14.4561V1.39632C175.836 0.574957 175.261 0 174.522 0Z" fill="#16161d"/>
<path d="M86.4403 60.1241C84.3881 62.4239 83.403 64.888 83.403 67.8449L83.6493 83.1224C83.6493 83.8616 84.2239 84.4365 84.9627 84.4365H95.7164C96.0448 84.4365 96.3731 84.2723 96.6194 84.0259C96.8657 83.7795 97.0298 83.4509 97.0298 83.1224L96.7836 68.2556C96.7836 64.9702 97.9328 62.0132 100.231 59.467C101.299 58.2349 102.612 57.3314 104.007 56.6743L94.5672 56.7565C91.2015 56.8386 88.4925 57.9885 86.4403 60.1241Z" fill="#16161d"/>
<path d="M157.612 0H146.94C146.201 0 145.627 0.574957 145.627 1.31419V14.0454C145.709 27.1051 142.097 37.4543 134.955 44.6824C130.03 49.6927 123.627 52.9782 115.91 54.5388H119.358C132 54.4566 141.851 50.9248 148.746 43.9431C155.642 37.0437 159.007 27.1051 158.925 14.4561V1.39632C158.925 0.574957 158.351 0 157.612 0Z" fill="#16161d"/>
<path d="M69.5299 60.1241C67.4776 62.4239 66.4925 64.9702 66.4925 67.9271L66.7388 83.2045C66.7388 83.9438 67.3134 84.5187 68.0522 84.5187H78.806C79.1343 84.5187 79.4627 84.3544 79.709 84.108C79.9552 83.8616 80.1194 83.5331 80.1194 83.2045L79.8731 68.3378C79.8731 65.0523 81.0224 62.0954 83.3209 59.5491C84.3881 58.3171 85.7015 57.4136 87.097 56.7565L77.6567 56.8386C74.209 56.8386 71.5821 57.9886 69.5299 60.1241Z" fill="#16161d"/>
<path d="M140.701 0H129.948C129.209 0 128.634 0.574957 128.634 1.31419V14.0454C128.716 27.1051 125.104 37.4543 117.963 44.6824C113.037 49.6927 106.634 52.9782 98.9179 54.5388H102.366C115.007 54.4566 124.858 50.9248 131.754 43.9431C138.649 37.0437 142.015 27.1051 141.933 14.4561V1.39632C142.015 0.574957 141.44 0 140.701 0Z" fill="#16161d"/>
<path d="M52.6194 60.1241C50.5672 62.4239 49.5821 64.9702 49.5821 67.9271L49.8284 83.2045C49.8284 83.9438 50.403 84.5187 51.1418 84.5187H61.8955C62.2239 84.5187 62.5522 84.3544 62.7985 84.108C63.0448 83.8616 63.209 83.5331 63.209 83.2045L62.8806 68.3378C62.8806 65.0523 64.0299 62.0954 66.3284 59.5491C67.4776 58.3171 68.709 57.4136 70.1045 56.7565L60.6642 56.8386C57.2985 56.8386 54.6716 57.9886 52.6194 60.1241Z" fill="#16161d"/>
<path d="M123.791 0H113.037C112.299 0 111.724 0.574957 111.724 1.31419V14.0454C111.806 27.1051 108.194 37.4543 101.052 44.6824C96.1269 49.6927 89.7239 52.9782 82.0075 54.5388H85.4552C98.097 54.4566 107.948 50.9248 114.843 43.9431C121.739 37.0437 125.104 27.1051 125.022 14.4561V1.39632C125.104 0.574957 124.53 0 123.791 0Z" fill="#16161d"/>
<path d="M36.0417 60.1241C33.9895 62.4239 32.9223 64.9702 33.0044 67.9271L33.1686 83.2045C33.1686 83.9438 33.7432 84.5187 34.482 84.5187H45.2357C45.5641 84.5187 45.8925 84.3544 46.1387 84.108C46.385 83.8616 46.5492 83.5331 46.5492 83.2045L46.3029 68.3378C46.3029 65.0523 47.4522 62.0954 49.7507 59.5491C50.8999 58.3171 52.1313 57.4136 53.5268 56.7565L44.0865 56.8386C40.7208 56.8386 38.0119 57.9886 36.0417 60.1241Z" fill="#16161d"/>
<path d="M107.131 0H96.3775C95.6387 0 95.0641 0.574957 95.0641 1.31419V14.0454C95.1462 27.1051 91.5343 37.4543 84.3925 44.6824C79.4671 49.6927 73.0641 52.9782 65.3477 54.5388H68.7954C81.4372 54.4566 91.288 50.9248 98.1835 43.9431C105.079 37.0437 108.445 27.1051 108.363 14.4561V1.39632C108.527 0.574957 107.87 0 107.131 0Z" fill="#16161d"/>
</svg>
